<svg width="219" height="33" viewBox="0 0 219 33" fill="none" xmlns="http://www.w3.org/2000/svg">
<path fill-rule="evenodd" clip-rule="evenodd" d="M16.4298 8.61442C17.2033 9.89386 16.4206 34.0045 16.6243 34.0001L17.1982 33.9879C17.1982 33.9879 17.2472 10.1013 17.5165 8.66523C17.9078 6.67998 20.4877 7.1107 22.396 7.1117C25.6379 7.1134 26.073 7.808 26.315 4.7265L27.6116 4.73359C28.0205 9.76922 27.8912 10.9374 24.4496 10.9388C19.0859 10.9408 18.9682 9.73857 18.9665 14.9863C18.9657 17.5201 18.6438 32.8623 19.114 33.8876C20.1954 33.7029 19.7918 33.3468 19.7914 30.4145L19.7906 17.6607C19.7812 11.2623 19.4945 12.4144 27.1125 12.231C29.2766 12.1787 28.2043 10.8777 28.9595 9.81393L30.0277 9.8093C30.1454 11.8271 30.7748 15.5291 28.5159 15.9827C26.5107 16.3853 22.6657 15.241 21.5242 16.6322C21.2684 17.0839 21.2793 29.6705 21.372 32.2782L21.5753 33.3636C22.3365 33.132 22.124 33.4388 22.2367 32.4931L22.2164 21.1574C22.2089 18.8084 22.1536 17.4083 24.6511 17.3279C26.5425 17.2669 29.2207 17.5718 30.8584 17.1061L31.1915 15.0152L32.4696 14.9051C32.5305 18.1348 33.0275 20.485 31.1011 21.0236C28.8619 21.6499 25.8702 20.6052 23.981 21.4797C23.503 23.3862 23.8131 30.0057 23.7913 32.5359C26.8509 31.7465 30.3322 27.9084 31.6806 25.5337C38.0492 14.3183 30.2224 -0.030297 16.8588 0.000292969C4.8603 0.0280115 -4.39222 12.8824 2.18619 25.3757C3.36601 27.6166 7.24436 31.8803 10.1275 32.5162C10.1246 30.5873 10.4119 22.872 9.95599 21.7209C8.93873 20.5389 4.7037 21.4612 2.97258 21.0873C0.899035 20.6397 1.29924 17.5432 1.47518 14.9632L2.7056 14.928L3.02634 17.0964C4.46296 17.5568 7.53506 17.2748 9.25929 17.3302C11.9564 17.4169 11.7056 18.9096 11.6996 21.3633L11.6975 31.033C11.6858 32.4249 11.3035 33.0926 12.495 33.434C12.7099 31.5168 12.684 17.6674 12.3603 16.3715C8.90005 15.0381 4.02232 17.9362 3.8455 13.7645C3.7987 12.6578 3.77083 10.9223 3.93876 9.86005L4.96017 9.78276C5.40595 10.4276 5.10625 11.4648 5.5799 11.901C7.17441 12.7574 11.1221 11.7324 12.8691 12.3905C14.7738 13.1082 14.1262 16.7893 14.1264 18.8951L14.1269 30.6205C14.1259 33.3487 13.7432 33.735 14.8067 33.839C15.219 33.0051 14.9489 17.3532 14.9489 14.9866C14.9492 9.90816 14.985 10.888 9.67802 10.933C6.21799 10.9622 5.87037 10.2313 6.29944 4.81693L7.59647 4.66849C7.70767 5.88377 7.5073 6.18017 8.0817 6.74609C9.70537 8.24224 15.6459 5.48996 16.4299 8.61465L16.4298 8.61442Z" fill="#2A4D9E"/>
<path fill-rule="evenodd" clip-rule="evenodd" d="M83.2462 12.4016C91.6604 10.2519 94.0649 24.0412 86.5123 25.7937C78.2376 27.7141 75.5397 14.3709 83.2462 12.4016ZM75.3758 19.5119C76.5272 31.8826 94.5382 30.5599 94.3442 18.6859C94.3001 15.9935 92.7947 13.3118 91.3815 12.2398C83.7874 6.47964 74.7241 12.5107 75.3758 19.5119Z" fill="#2755A2"/>
<path fill-rule="evenodd" clip-rule="evenodd" d="M127.23 10.4459C127.632 11.0686 127.992 11.032 128.294 11.8439C128.592 12.6413 128.642 23.9274 128.462 25.4717C128.277 27.0483 127.754 26.8068 127.083 27.7434L132.094 27.7256C131.675 26.8116 130.815 26.9882 130.814 25.2717L130.804 15.3107C131.694 15.6973 131.549 15.9002 132.46 17.1264L136.515 22.3136C138.341 24.4811 140.099 28.0113 143.01 28.3393C143.292 26.6308 143.091 16.9876 143.083 13.9491C143.075 11.2977 143.376 12.0392 144.398 10.3611L139.618 10.3621C140.213 11.4369 140.653 11.1378 140.762 12.7157L140.766 22.4694C139.942 22.2388 140.538 22.6074 139.368 21.1061L132.381 12.0684C131.906 11.5079 131.778 11.1216 131.314 10.4165L127.23 10.4459V10.4459Z" fill="#2755A2"/>
<path fill-rule="evenodd" clip-rule="evenodd" d="M42.063 10.3866C42.4833 11.323 42.8145 10.9279 43.0349 11.937C43.2724 13.0223 43.2251 25.6296 42.9732 26.3665C42.6149 27.4145 42.3857 26.7642 42.0632 27.7699L47.2045 27.7635C46.8743 26.8522 46.5288 27.2125 46.2684 26.245C46.0382 25.3902 46.0455 20.2229 46.2735 19.3532L54.7396 19.3779C54.9107 20.1403 55.0008 25.5433 54.7071 26.4223C54.4237 27.2712 54.1393 26.995 53.8483 27.7499L58.9922 27.8187C58.5516 26.7198 58.2781 27.3607 58.0312 26.1933L57.9597 19.1005C57.9597 17.6095 57.5538 12.187 58.4392 11.0403L58.7527 10.6615C58.7786 10.6286 58.8389 10.6005 58.8576 10.5169C58.8767 10.4314 58.9342 10.4214 58.9615 10.3799L53.8168 10.4312C54.5778 11.5301 54.8665 11.4606 54.8605 13.3363C54.8564 14.5722 54.9062 15.8227 54.8101 17.1238L46.1875 17.0592C45.6669 11.1136 46.6175 11.6603 47.195 10.3828L42.0629 10.3867L42.063 10.3866Z" fill="#2755A2"/>
<path fill-rule="evenodd" clip-rule="evenodd" d="M109.294 10.3577C109.75 11.6923 110.278 11.0582 110.272 13.3301C110.265 15.9872 110.021 22.5661 110.623 24.4252C111.204 26.2169 112.595 27.4788 114.741 27.9414C117.649 28.5685 118.979 27.729 120.851 26.6437L121.003 26.9693C121.022 27.0167 121.049 27.0808 121.068 27.1308L121.262 27.7557L125.221 27.7927C124.78 26.7441 124.525 27.4326 124.221 26.2278C123.957 25.1801 124.092 16.1208 124.085 14.369C124.07 10.6393 124.399 11.6852 125.076 10.3893L120.146 10.3761C120.172 10.433 120.216 10.4991 120.24 10.5384C121.306 12.2486 121.131 11.7872 121.125 14.7805C121.121 16.8105 121.579 22.8877 120.477 24.2758C119.831 25.0885 118.618 25.7976 117.132 25.8538C113.516 25.9903 113.33 22.96 113.334 19.7175C113.336 18.0032 113.335 16.2888 113.334 14.5747C113.332 11.1599 113.083 12.295 114.241 10.389L109.295 10.3577L109.294 10.3577Z" fill="#2352A3"/>
<path fill-rule="evenodd" clip-rule="evenodd" d="M162.272 18.9025L158.021 18.8712C158.701 20.0267 159.079 19.6093 159.095 21.7683C159.103 22.9833 159.21 24.4683 158.973 25.6369C156.624 26.6311 153.573 26.0159 151.674 24.7987C149.674 23.5163 148.633 20.7762 148.833 18.2664C149.162 14.1319 153.167 12.0205 156.732 12.4987C158.547 12.7422 159.035 13.3964 160.385 13.9159L160.311 10.6128C147.421 7.82555 143.186 17.5562 146.428 23.6929C148.901 28.3746 154.98 28.7448 160.387 27.9042C164.012 27.3408 160.979 28.0568 162.272 18.9024L162.272 18.9025Z" fill="#2755A2"/>
<path fill-rule="evenodd" clip-rule="evenodd" d="M188.3 27.5367L192.468 27.4958C191.918 26.3139 191.544 26.9857 191.324 25.1551L191.308 14.2534C192.136 14.4096 196.824 20.8248 197.388 21.5362C198.939 23.4938 201.981 28.1344 204.218 28.2413C204.42 23.7656 204.273 17.8176 204.28 13.1348C204.281 11.0371 204.94 11.3539 205.427 10.1753L201.217 10.2018C202.417 12.4813 202.409 9.97294 202.409 16.2204C202.409 17.7303 202.697 22.164 202.282 23.235C201.619 22.9677 200.121 20.7668 199.625 20.1236L191.895 10.2192L188.326 10.2064C188.647 10.823 188.988 10.8487 189.252 11.5905C189.574 12.4975 189.613 25.0256 189.296 26.032C189.041 26.8384 188.702 26.7159 188.3 27.5366L188.3 27.5367Z" fill="#2352A3"/>
<path fill-rule="evenodd" clip-rule="evenodd" d="M95.6861 23.8747C95.7717 24.3426 96.0921 26.678 96.198 26.9013C96.4565 27.4467 96.4466 27.3571 97.2363 27.5837C106.424 30.2194 110.309 24.0737 107.313 20.5451C106.35 19.4105 105.426 18.7355 103.733 17.9484C102.373 17.3159 100.712 16.5739 100.002 15.526C98.7748 13.7169 100.048 12.4418 101.979 12.3005C104.419 12.1218 105.197 13.177 106.812 13.7925L106.669 10.7005C102.062 8.46986 94.3471 11.0387 96.4914 16.1706C97.9043 19.5517 107.39 21.3792 104.41 24.8286C103.569 25.8016 101.475 26.0791 99.8971 25.7083C97.9098 25.2416 97.2238 24.4228 95.6862 23.8747H95.6861Z" fill="#2755A2"/>
<path fill-rule="evenodd" clip-rule="evenodd" d="M206.602 24.1093C206.611 24.5202 207.034 26.3861 207.187 26.7265C207.516 27.4617 208.381 27.5725 209.279 27.7258C217.405 29.1119 221.127 23.3267 217.765 19.8285C216.075 18.0699 210.973 16.8607 210.128 14.9279C209.095 12.5673 212.207 10.8649 215.49 12.0331C216.495 12.3906 216.806 12.8965 217.524 13.1123L217.497 10.414C214.557 9.36534 209.767 9.55216 207.908 11.7835C205.343 14.8626 208.081 17.8639 210.756 19.0503C212.141 19.6647 213.573 20.2284 214.727 21.02C215.846 21.787 216.755 23.541 215.302 24.9611C212.175 28.0166 207.398 24.4557 206.602 24.1092L206.602 24.1093Z" fill="#2352A3"/>
<path fill-rule="evenodd" clip-rule="evenodd" d="M66.1102 27.7236L71.2023 27.7714C70.2798 25.7084 70.1809 28.0222 70.1746 22.8031C70.1713 19.9093 70.2412 20.0056 71.5691 18.0162C72.3894 16.7871 76.1711 11.248 76.4679 10.35L71.586 10.3848C72.1101 11.7133 73.2063 11.3 71.3702 13.9191C70.6363 14.9661 69.973 16.3155 69.1622 17.283C68.402 16.9068 68.0458 15.9625 67.5623 15.1539C67.0361 14.2739 66.5954 13.5846 66.0874 12.7233C64.9272 10.7563 65.2928 9.98564 60.5221 10.4266C61.9808 12.1561 61.3497 10.6989 63.2689 13.8964C64.0501 15.1977 64.8256 16.3824 65.592 17.7369C67.2141 20.6046 67.2868 19.6495 67.0829 25.4874C67.0194 27.3004 66.4964 26.6392 66.1101 27.7236L66.1102 27.7236Z" fill="#2755A2"/>
<path fill-rule="evenodd" clip-rule="evenodd" d="M186.228 10.0717C182.398 10.6915 177.021 9.74128 173.319 10.1961L172.528 12.968C174.617 12.2384 174.967 11.7381 177.917 12.0844C178.152 13.7951 177.956 21.6097 177.977 24.4504C177.994 26.6903 177.806 26.2068 177.076 27.4853L181.8 27.5424C181.119 26.1193 180.654 26.8686 180.635 24.4597L180.67 12.2049C181.448 11.874 182.554 11.9532 183.42 12.0571C184.804 12.2238 184.636 12.6655 185.468 12.876L186.228 10.0717Z" fill="#2352A3"/>
</svg>
